<svg xmlns="http://www.w3.org/2000/svg" version="1.1" xmlns:xlink="http://www.w3.org/1999/xlink" xmlns:svgjs="http://svgjs.dev/svgjs" width="1000" height="623" viewBox="0 0 1000 623"><g transform="matrix(1,0,0,1,-0.6060606060606233,0.2522267206477409)"><svg viewBox="0 0 396 247" data-background-color="#ffffff" preserveAspectRatio="xMidYMid meet" height="623" width="1000" xmlns="http://www.w3.org/2000/svg" xmlns:xlink="http://www.w3.org/1999/xlink"><g id="tight-bounds" transform="matrix(1,0,0,1,0.2400000000000091,-0.09999999999999432)"><svg viewBox="0 0 395.52 247.2" height="247.2" width="395.52"><g><svg></svg></g><g><svg viewBox="0 0 395.52 247.2" height="247.2" width="395.52"><g transform="matrix(1,0,0,1,75.54432,105.53007430674846)"><svg viewBox="0 0 244.43135999999998 36.13985138650306" height="36.13985138650306" width="244.43135999999998"><g><svg viewBox="0 0 244.43135999999998 36.13985138650306" height="36.13985138650306" width="244.43135999999998"><g><svg viewBox="0 0 244.43135999999998 36.13985138650306" height="36.13985138650306" width="244.43135999999998"><g><svg viewBox="0 0 244.43135999999998 36.13985138650306" height="36.13985138650306" width="244.43135999999998"><g id="textblocktransform"><svg viewBox="0 0 244.43135999999998 36.13985138650306" height="36.13985138650306" width="244.43135999999998" id="textblock"><g><svg viewBox="0 0 244.43135999999998 36.13985138650306" height="36.13985138650306" width="244.43135999999998"><g transform="matrix(1,0,0,1,0,0)"><svg width="244.43135999999998" viewBox="3.8499999046325684 -35.900001525878906 244.47000122070312 36.150001525878906" height="36.13985138650306" data-palette-color="#8d021f"><path d="M16.15 0L16.15 0 3.85 0 3.85-33.7 14-33.7Q19.2-33.7 22.33-31.3 25.45-28.9 25.45-24.85L25.45-24.85Q25.45-21.95 23.83-19.83 22.2-17.7 19.65-17.15L19.65-17.15Q22.45-16.7 24.43-14.63 26.4-12.55 26.4-9L26.4-9Q26.4-4.95 23.73-2.48 21.05 0 16.15 0ZM14-30.25L14-30.25 7.9-30.25 7.9-18.75 13.3-18.75Q17.35-18.75 19.3-20.45 21.25-22.15 21.25-24.85L21.25-24.85Q21.25-27.2 19.43-28.73 17.6-30.25 14-30.25ZM14.8-15.3L14.8-15.3 7.9-15.3 7.9-3.45 15.55-3.45Q18.75-3.45 20.48-4.93 22.2-6.4 22.2-9.25 22.2-12.1 20.28-13.7 18.35-15.3 14.8-15.3ZM36.1-13.85L36.1 0 32.15 0 32.2-25.35 36.1-25.35 36.1-20.9Q38.1-25.6 43-25.6L43-25.6Q43.9-25.6 44.4-25.5L44.4-25.5 44.4-21.6Q43.35-21.95 42.25-21.95L42.25-21.95Q39.6-21.95 37.85-19.5 36.1-17.05 36.1-13.85L36.1-13.85ZM52.64-25.35L52.64 0 48.7 0 48.7-25.35 52.64-25.35ZM52.49-35.15Q53.24-34.4 53.24-33.3 53.24-32.2 52.49-31.48 51.74-30.75 50.64-30.75 49.55-30.75 48.82-31.48 48.09-32.2 48.09-33.3 48.09-34.4 48.82-35.15 49.55-35.9 50.64-35.9 51.74-35.9 52.49-35.15ZM67.89-3.05L67.89-3.05Q70.59-3.05 72.19-4.58 73.79-6.1 73.79-8.45L73.79-8.45 73.79-11.7 69.39-11.7Q66.19-11.7 64.59-10.45 62.99-9.2 62.99-7.3 62.99-5.4 64.24-4.23 65.49-3.05 67.89-3.05ZM73.84 0L73.84-3Q71.89 0.25 66.74 0.25L66.74 0.25Q63.19 0.25 61.02-1.85 58.84-3.95 58.84-7.15L58.84-7.15Q58.84-10.8 61.62-12.83 64.39-14.85 69.19-14.85L69.19-14.85 73.79-14.85 73.79-16.15Q73.79-19.15 72.44-20.68 71.09-22.2 67.89-22.2L67.89-22.2Q63.84-22.2 60.69-20.05L60.69-20.05 60.69-24Q63.54-25.75 68.19-25.75L68.19-25.75Q77.74-25.75 77.74-16.05L77.74-16.05 77.74 0 73.84 0ZM104.74-17.45L104.74 0 100.79 0 100.79-16.4Q100.79-19.2 99.37-20.68 97.94-22.15 95.64-22.15L95.64-22.15Q92.79-22.15 90.72-19.95 88.64-17.75 88.64-13.85L88.64-13.85 88.64 0 84.74 0 84.74-25.35 88.64-25.35 88.64-20.95Q90.89-25.7 96.64-25.7L96.64-25.7Q100.34-25.7 102.54-23.45 104.74-21.2 104.74-17.45L104.74-17.45ZM133.49-33.7L133.49-8.65Q133.49 0 125.64 0L125.64 0Q122.84 0 120.89-1.1L120.89-1.1 120.89-5Q122.89-3.7 125.09-3.7L125.09-3.7Q129.44-3.7 129.44-8.3L129.44-8.3 129.44-33.7 133.49-33.7ZM148.68-3.05L148.68-3.05Q151.38-3.05 152.98-4.58 154.58-6.1 154.58-8.45L154.58-8.45 154.58-11.7 150.18-11.7Q146.98-11.7 145.38-10.45 143.78-9.2 143.78-7.3 143.78-5.4 145.03-4.23 146.28-3.05 148.68-3.05ZM154.63 0L154.63-3Q152.68 0.25 147.53 0.25L147.53 0.25Q143.98 0.25 141.81-1.85 139.63-3.95 139.63-7.15L139.63-7.15Q139.63-10.8 142.41-12.83 145.18-14.85 149.98-14.85L149.98-14.85 154.58-14.85 154.58-16.15Q154.58-19.15 153.23-20.68 151.88-22.2 148.68-22.2L148.68-22.2Q144.63-22.2 141.48-20.05L141.48-20.05 141.48-24Q144.33-25.75 148.98-25.75L148.98-25.75Q158.53-25.75 158.53-16.05L158.53-16.05 158.53 0 154.63 0ZM199.43-17.4L199.43 0 195.48 0 195.48-16.4Q195.48-22.15 190.63-22.15L190.63-22.15Q188.23-22.15 186.33-19.98 184.43-17.8 184.43-13.85L184.43-13.85 184.43 0 180.48 0 180.48-16.4Q180.48-22.15 175.63-22.15L175.63-22.15Q173.23-22.15 171.33-19.98 169.43-17.8 169.43-13.85L169.43-13.85 169.43 0 165.53 0 165.53-25.35 169.43-25.35 169.43-21.25Q171.53-25.7 176.58-25.7L176.58-25.7Q182.43-25.7 183.98-20.75L183.98-20.75Q185.08-23.15 187.06-24.43 189.03-25.7 191.48-25.7L191.48-25.7Q195.43-25.7 197.43-23.45 199.43-21.2 199.43-17.4L199.43-17.4ZM210.58-25.35L210.58 0 206.63 0 206.63-25.35 210.58-25.35ZM210.43-35.15Q211.18-34.4 211.18-33.3 211.18-32.2 210.43-31.48 209.68-30.75 208.58-30.75 207.48-30.75 206.75-31.48 206.03-32.2 206.03-33.3 206.03-34.4 206.75-35.15 207.48-35.9 208.58-35.9 209.68-35.9 210.43-35.15ZM236.58-5L236.58-1.3Q233.63 0.25 229.38 0.25L229.38 0.25Q223.63 0.25 220.1-3.28 216.58-6.8 216.58-12.6L216.58-12.6Q216.58-18.65 219.73-22.15 222.88-25.65 227.83-25.65L227.83-25.65Q232.58-25.65 235.38-22.6 238.18-19.55 238.18-13.95L238.18-13.95Q238.18-12.35 237.93-11L237.93-11 220.63-11Q221.08-7.25 223.48-5.25 225.88-3.25 229.78-3.25L229.78-3.25Q234.03-3.25 236.58-5L236.58-5ZM227.83-22.2L227.83-22.2Q224.98-22.2 222.98-20.15 220.98-18.1 220.63-14.3L220.63-14.3 234.23-14.3 234.23-15.3Q234.23-18.45 232.53-20.33 230.83-22.2 227.83-22.2ZM248.32-35.35L248.32 0 244.37 0 244.37-35.35 248.32-35.35Z" opacity="1" transform="matrix(1,0,0,1,0,0)" fill="#8d021f" class="undefined-text-0" data-fill-palette-color="primary" id="text-0"></path></svg></g></svg></g></svg></g></svg></g></svg></g></svg></g></svg></g><g><path d="M245.816 0c68.262 0 123.6 55.338 123.6 123.6 0 68.262-55.338 123.6-123.6 123.6-60.636 0-111.074-43.664-121.587-101.264h1.657c10.492 56.695 60.197 99.635 119.93 99.634 67.362 0 121.97-54.608 121.97-121.97 0-67.362-54.608-121.97-121.97-121.97-59.733 0-109.438 42.939-119.93 99.634h-1.657c10.513-57.601 60.951-101.264 121.587-101.264z" fill="#8d021f" stroke="transparent" data-fill-palette-color="tertiary"></path></g></svg></g><defs></defs></svg><rect width="395.52" height="247.2" fill="none" stroke="none" visibility="hidden"></rect></g></svg></g></svg>